<?xml version="1.0" encoding="iso-8859-1"?>
<!-- Uploaded to: SVG Repo, www.svgrepo.com, Generator: SVG Repo Mixer Tools -->
<svg height="800px" width="800px" version="1.1" id="Layer_1" xmlns="http://www.w3.org/2000/svg" xmlns:xlink="http://www.w3.org/1999/xlink" 
	 viewBox="0 0 512 512" xml:space="preserve">
<circle style="fill:#EA8953;" cx="256" cy="256" r="256"/>
<path style="opacity:0.1;enable-background:new    ;" d="M509.957,287.861l-108.88-108.88l-0.091,0.059
	c-1.115-1.189-2.672-1.952-4.427-1.952H115.44c-3.371,0-6.107,2.736-6.107,6.107v8V320.8v8c0,1.659,0.672,3.157,1.749,4.256h-0.016
	l0.048,0.048c0.005,0.005,0.011,0.011,0.016,0.016l176.816,176.827C403.797,495.509,495.557,403.723,509.957,287.861z"/>
<path style="fill:#D5D6DB;" d="M396.56,185.093H115.44c-3.371,0-6.107,2.736-6.107,6.107v137.605c0,3.371,2.731,6.107,6.107,6.107
	h281.12c3.371,0,6.107-2.731,6.107-6.107V191.2C402.667,187.824,399.931,185.093,396.56,185.093z"/>
<path style="fill:#EBF0F3;" d="M396.56,177.093H115.44c-3.371,0-6.107,2.736-6.107,6.107v137.605c0,3.371,2.731,6.107,6.107,6.107
	h281.12c3.371,0,6.107-2.731,6.107-6.107V183.2C402.667,179.824,399.931,177.093,396.56,177.093z"/>
<g>
	<path style="fill:#3A556A;" d="M145.616,194.667h-18.565c-0.795,0-1.435,0.661-1.435,1.477v8.411c0,0.816,0.64,1.477,1.435,1.477
		h18.565c0.795,0,1.435-0.661,1.435-1.477v-8.411C147.051,195.328,146.411,194.667,145.616,194.667z"/>
	<path style="fill:#3A556A;" d="M186.949,194.667h-18.565c-0.795,0-1.435,0.661-1.435,1.477v8.411c0,0.816,0.64,1.477,1.435,1.477
		h18.565c0.795,0,1.435-0.661,1.435-1.477v-8.411C188.384,195.328,187.744,194.667,186.949,194.667z"/>
	<path style="fill:#3A556A;" d="M213.616,194.667h-18.565c-0.795,0-1.435,0.661-1.435,1.477v8.411c0,0.816,0.64,1.477,1.435,1.477
		h18.565c0.795,0,1.435-0.661,1.435-1.477v-8.411C215.051,195.328,214.411,194.667,213.616,194.667z"/>
	<path style="fill:#3A556A;" d="M240.283,194.667h-18.565c-0.795,0-1.435,0.661-1.435,1.477v8.411c0,0.816,0.64,1.477,1.435,1.477
		h18.565c0.795,0,1.435-0.661,1.435-1.477v-8.411C241.717,195.328,241.077,194.667,240.283,194.667z"/>
	<path style="fill:#3A556A;" d="M266.949,194.667h-18.565c-0.795,0-1.435,0.661-1.435,1.477v8.411c0,0.816,0.64,1.477,1.435,1.477
		h18.565c0.795,0,1.435-0.661,1.435-1.477v-8.411C268.384,195.328,267.744,194.667,266.949,194.667z"/>
	<path style="fill:#3A556A;" d="M304.949,194.667h-18.565c-0.795,0-1.435,0.661-1.435,1.477v8.411c0,0.816,0.64,1.477,1.435,1.477
		h18.565c0.795,0,1.435-0.661,1.435-1.477v-8.411C306.384,195.328,305.744,194.667,304.949,194.667z"/>
	<path style="fill:#3A556A;" d="M331.616,194.667h-18.565c-0.795,0-1.435,0.661-1.435,1.477v8.411c0,0.816,0.64,1.477,1.435,1.477
		h18.565c0.795,0,1.435-0.661,1.435-1.477v-8.411C333.051,195.328,332.411,194.667,331.616,194.667z"/>
	<path style="fill:#3A556A;" d="M358.283,194.667h-18.565c-0.795,0-1.435,0.661-1.435,1.477v8.411c0,0.816,0.64,1.477,1.435,1.477
		h18.565c0.795,0,1.435-0.661,1.435-1.477v-8.411C359.717,195.328,359.077,194.667,358.283,194.667z"/>
	<path style="fill:#3A556A;" d="M384.949,194.667h-18.565c-0.795,0-1.435,0.661-1.435,1.477v8.411c0,0.816,0.64,1.477,1.435,1.477
		h18.565c0.795,0,1.435-0.661,1.435-1.477v-8.411C386.384,195.328,385.744,194.667,384.949,194.667z"/>
</g>
<path style="fill:#64798A;" d="M145.616,192.939h-18.565c-0.795,0-1.435,0.661-1.435,1.477v8.411c0,0.816,0.64,1.477,1.435,1.477
	h18.565c0.795,0,1.435-0.661,1.435-1.477v-8.411C147.051,193.6,146.411,192.939,145.616,192.939z"/>
<path style="fill:#3A556A;" d="M145.616,221.429h-18.565c-0.795,0-1.435,0.661-1.435,1.477v13.173c0,0.816,0.64,1.477,1.435,1.477
	h18.565c0.795,0,1.435-0.661,1.435-1.477v-13.173C147.051,222.091,146.411,221.429,145.616,221.429z"/>
<path style="fill:#64798A;" d="M145.616,219.701h-18.565c-0.795,0-1.435,0.661-1.435,1.477v13.173c0,0.816,0.64,1.477,1.435,1.477
	h18.565c0.795,0,1.435-0.661,1.435-1.477v-13.173C147.051,220.363,146.411,219.701,145.616,219.701z"/>
<path style="fill:#3A556A;" d="M172.208,221.429h-18.565c-0.795,0-1.435,0.661-1.435,1.477v13.173c0,0.816,0.645,1.477,1.435,1.477
	h18.565c0.795,0,1.435-0.661,1.435-1.477v-13.173C173.643,222.091,173.003,221.429,172.208,221.429z"/>
<path style="fill:#64798A;" d="M172.208,219.701h-18.565c-0.795,0-1.435,0.661-1.435,1.477v13.173c0,0.816,0.645,1.477,1.435,1.477
	h18.565c0.795,0,1.435-0.661,1.435-1.477v-13.173C173.643,220.363,173.003,219.701,172.208,219.701z"/>
<path style="fill:#3A556A;" d="M198.805,221.429H180.24c-0.795,0-1.435,0.661-1.435,1.477v13.173c0,0.816,0.64,1.477,1.435,1.477
	h18.565c0.795,0,1.435-0.661,1.435-1.477v-13.173C200.235,222.091,199.595,221.429,198.805,221.429z"/>
<path style="fill:#64798A;" d="M198.805,219.701H180.24c-0.795,0-1.435,0.661-1.435,1.477v13.173c0,0.816,0.64,1.477,1.435,1.477
	h18.565c0.795,0,1.435-0.661,1.435-1.477v-13.173C200.235,220.363,199.595,219.701,198.805,219.701z"/>
<path style="fill:#3A556A;" d="M225.397,221.429h-18.571c-0.795,0-1.435,0.661-1.435,1.477v13.173c0,0.816,0.645,1.477,1.435,1.477
	h18.565c0.795,0,1.435-0.661,1.435-1.477v-13.173C226.827,222.091,226.187,221.429,225.397,221.429z"/>
<path style="fill:#64798A;" d="M225.397,219.701h-18.571c-0.795,0-1.435,0.661-1.435,1.477v13.173c0,0.816,0.645,1.477,1.435,1.477
	h18.565c0.795,0,1.435-0.661,1.435-1.477v-13.173C226.827,220.363,226.187,219.701,225.397,219.701z"/>
<path style="fill:#3A556A;" d="M251.989,221.429h-18.565c-0.795,0-1.435,0.661-1.435,1.477v13.173c0,0.816,0.645,1.477,1.435,1.477
	h18.565c0.795,0,1.435-0.661,1.435-1.477v-13.173C253.419,222.091,252.779,221.429,251.989,221.429z"/>
<path style="fill:#64798A;" d="M251.989,219.701h-18.565c-0.795,0-1.435,0.661-1.435,1.477v13.173c0,0.816,0.645,1.477,1.435,1.477
	h18.565c0.795,0,1.435-0.661,1.435-1.477v-13.173C253.419,220.363,252.779,219.701,251.989,219.701z"/>
<path style="fill:#3A556A;" d="M278.581,221.429h-18.565c-0.795,0-1.435,0.661-1.435,1.477v13.173c0,0.816,0.64,1.477,1.435,1.477
	h18.565c0.795,0,1.435-0.661,1.435-1.477v-13.173C280.016,222.091,279.371,221.429,278.581,221.429z"/>
<path style="fill:#64798A;" d="M278.581,219.701h-18.565c-0.795,0-1.435,0.661-1.435,1.477v13.173c0,0.816,0.64,1.477,1.435,1.477
	h18.565c0.795,0,1.435-0.661,1.435-1.477v-13.173C280.016,220.363,279.371,219.701,278.581,219.701z"/>
<path style="fill:#3A556A;" d="M305.173,221.429h-18.565c-0.795,0-1.435,0.661-1.435,1.477v13.173c0,0.816,0.64,1.477,1.435,1.477
	h18.565c0.795,0,1.435-0.661,1.435-1.477v-13.173C306.608,222.091,305.968,221.429,305.173,221.429z"/>
<path style="fill:#64798A;" d="M305.173,219.701h-18.565c-0.795,0-1.435,0.661-1.435,1.477v13.173c0,0.816,0.64,1.477,1.435,1.477
	h18.565c0.795,0,1.435-0.661,1.435-1.477v-13.173C306.608,220.363,305.968,219.701,305.173,219.701z"/>
<path style="fill:#3A556A;" d="M331.765,221.429H313.2c-0.795,0-1.435,0.661-1.435,1.477v13.173c0,0.816,0.64,1.477,1.435,1.477
	h18.565c0.795,0,1.435-0.661,1.435-1.477v-13.173C333.2,222.091,332.56,221.429,331.765,221.429z"/>
<path style="fill:#64798A;" d="M331.765,219.701H313.2c-0.795,0-1.435,0.661-1.435,1.477v13.173c0,0.816,0.64,1.477,1.435,1.477
	h18.565c0.795,0,1.435-0.661,1.435-1.477v-13.173C333.2,220.363,332.56,219.701,331.765,219.701z"/>
<path style="fill:#3A556A;" d="M358.357,221.429h-18.565c-0.795,0-1.435,0.661-1.435,1.477v13.173c0,0.816,0.64,1.477,1.435,1.477
	h18.565c0.795,0,1.435-0.661,1.435-1.477v-13.173C359.792,222.091,359.152,221.429,358.357,221.429z"/>
<path style="fill:#64798A;" d="M358.357,219.701h-18.565c-0.795,0-1.435,0.661-1.435,1.477v13.173c0,0.816,0.64,1.477,1.435,1.477
	h18.565c0.795,0,1.435-0.661,1.435-1.477v-13.173C359.792,220.363,359.152,219.701,358.357,219.701z"/>
<path style="fill:#3A556A;" d="M384.949,221.429h-18.565c-0.795,0-1.435,0.661-1.435,1.477v13.173c0,0.816,0.64,1.477,1.435,1.477
	h18.565c0.795,0,1.435-0.661,1.435-1.477v-13.173C386.384,222.091,385.744,221.429,384.949,221.429z"/>
<path style="fill:#64798A;" d="M384.949,219.701h-18.565c-0.795,0-1.435,0.661-1.435,1.477v13.173c0,0.816,0.64,1.477,1.435,1.477
	h18.565c0.795,0,1.435-0.661,1.435-1.477v-13.173C386.384,220.363,385.744,219.701,384.949,219.701z"/>
<path style="fill:#3A556A;" d="M161.493,245.931h-34.443c-0.795,0-1.435,0.661-1.435,1.477v13.173c0,0.816,0.64,1.477,1.435,1.477
	h34.443c0.795,0,1.435-0.661,1.435-1.477v-13.173C162.928,246.592,162.288,245.931,161.493,245.931z"/>
<path style="fill:#64798A;" d="M161.493,244.203h-34.443c-0.795,0-1.435,0.661-1.435,1.477v13.173c0,0.816,0.64,1.477,1.435,1.477
	h34.443c0.795,0,1.435-0.661,1.435-1.477V245.68C162.928,244.864,162.288,244.203,161.493,244.203z"/>
<path style="fill:#3A556A;" d="M188.592,245.931h-18.565c-0.795,0-1.435,0.661-1.435,1.477v13.173c0,0.816,0.64,1.477,1.435,1.477
	h18.565c0.795,0,1.435-0.661,1.435-1.477v-13.173C190.027,246.592,189.387,245.931,188.592,245.931z"/>
<path style="fill:#64798A;" d="M188.592,244.203h-18.565c-0.795,0-1.435,0.661-1.435,1.477v13.173c0,0.816,0.64,1.477,1.435,1.477
	h18.565c0.795,0,1.435-0.661,1.435-1.477V245.68C190.027,244.864,189.387,244.203,188.592,244.203z"/>
<path style="fill:#3A556A;" d="M215.184,245.931h-18.565c-0.795,0-1.435,0.661-1.435,1.477v13.173c0,0.816,0.64,1.477,1.435,1.477
	h18.565c0.795,0,1.435-0.661,1.435-1.477v-13.173C216.619,246.592,215.979,245.931,215.184,245.931z"/>
<path style="fill:#64798A;" d="M215.184,244.203h-18.565c-0.795,0-1.435,0.661-1.435,1.477v13.173c0,0.816,0.64,1.477,1.435,1.477
	h18.565c0.795,0,1.435-0.661,1.435-1.477V245.68C216.619,244.864,215.979,244.203,215.184,244.203z"/>
<path style="fill:#3A556A;" d="M241.776,245.931h-18.565c-0.795,0-1.435,0.661-1.435,1.477v13.173c0,0.816,0.64,1.477,1.435,1.477
	h18.565c0.795,0,1.435-0.661,1.435-1.477v-13.173C243.211,246.592,242.571,245.931,241.776,245.931z"/>
<path style="fill:#64798A;" d="M241.776,244.203h-18.565c-0.795,0-1.435,0.661-1.435,1.477v13.173c0,0.816,0.64,1.477,1.435,1.477
	h18.565c0.795,0,1.435-0.661,1.435-1.477V245.68C243.211,244.864,242.571,244.203,241.776,244.203z"/>
<path style="fill:#3A556A;" d="M268.368,245.931h-18.565c-0.795,0-1.435,0.661-1.435,1.477v13.173c0,0.816,0.64,1.477,1.435,1.477
	h18.565c0.795,0,1.435-0.661,1.435-1.477v-13.173C269.803,246.592,269.163,245.931,268.368,245.931z"/>
<path style="fill:#64798A;" d="M268.368,244.203h-18.565c-0.795,0-1.435,0.661-1.435,1.477v13.173c0,0.816,0.64,1.477,1.435,1.477
	h18.565c0.795,0,1.435-0.661,1.435-1.477V245.68C269.803,244.864,269.163,244.203,268.368,244.203z"/>
<path style="fill:#3A556A;" d="M294.965,245.931H276.4c-0.795,0-1.435,0.661-1.435,1.477v13.173c0,0.816,0.64,1.477,1.435,1.477
	h18.565c0.795,0,1.435-0.661,1.435-1.477v-13.173C296.395,246.592,295.755,245.931,294.965,245.931z"/>
<path style="fill:#64798A;" d="M294.965,244.203H276.4c-0.795,0-1.435,0.661-1.435,1.477v13.173c0,0.816,0.64,1.477,1.435,1.477
	h18.565c0.795,0,1.435-0.661,1.435-1.477V245.68C296.395,244.864,295.755,244.203,294.965,244.203z"/>
<path style="fill:#3A556A;" d="M321.557,245.931h-18.565c-0.795,0-1.435,0.661-1.435,1.477v13.173c0,0.816,0.64,1.477,1.435,1.477
	h18.565c0.795,0,1.435-0.661,1.435-1.477v-13.173C322.987,246.592,322.347,245.931,321.557,245.931z"/>
<path style="fill:#64798A;" d="M321.557,244.203h-18.565c-0.795,0-1.435,0.661-1.435,1.477v13.173c0,0.816,0.64,1.477,1.435,1.477
	h18.565c0.795,0,1.435-0.661,1.435-1.477V245.68C322.987,244.864,322.347,244.203,321.557,244.203z"/>
<path style="fill:#3A556A;" d="M348.149,245.931h-18.565c-0.795,0-1.435,0.661-1.435,1.477v13.173c0,0.816,0.64,1.477,1.435,1.477
	h18.565c0.795,0,1.435-0.661,1.435-1.477v-13.173C349.584,246.592,348.939,245.931,348.149,245.931z"/>
<path style="fill:#64798A;" d="M348.149,244.203h-18.565c-0.795,0-1.435,0.661-1.435,1.477v13.173c0,0.816,0.64,1.477,1.435,1.477
	h18.565c0.795,0,1.435-0.661,1.435-1.477V245.68C349.584,244.864,348.939,244.203,348.149,244.203z"/>
<path style="fill:#3A556A;" d="M384.949,245.931h-28.779c-0.795,0-1.435,0.661-1.435,1.477v13.173c0,0.816,0.64,1.477,1.435,1.477
	h28.779c0.795,0,1.435-0.661,1.435-1.477v-13.173C386.384,246.592,385.744,245.931,384.949,245.931z"/>
<path style="fill:#64798A;" d="M384.949,244.203h-28.779c-0.795,0-1.435,0.661-1.435,1.477v13.173c0,0.816,0.64,1.477,1.435,1.477
	h28.779c0.795,0,1.435-0.661,1.435-1.477V245.68C386.384,244.864,385.744,244.203,384.949,244.203z"/>
<path style="fill:#3A556A;" d="M172.208,270.432h-45.157c-0.795,0-1.435,0.661-1.435,1.477v13.173c0,0.816,0.64,1.477,1.435,1.477
	h45.157c0.795,0,1.435-0.661,1.435-1.477v-13.173C173.643,271.093,173.003,270.432,172.208,270.432z"/>
<path style="fill:#64798A;" d="M172.208,268.704h-45.157c-0.795,0-1.435,0.661-1.435,1.477v13.173c0,0.816,0.64,1.477,1.435,1.477
	h45.157c0.795,0,1.435-0.661,1.435-1.477v-13.173C173.643,269.365,173.003,268.704,172.208,268.704z"/>
<path style="fill:#3A556A;" d="M198.805,270.432H180.24c-0.795,0-1.435,0.661-1.435,1.477v13.173c0,0.816,0.64,1.477,1.435,1.477
	h18.565c0.795,0,1.435-0.661,1.435-1.477v-13.173C200.235,271.093,199.595,270.432,198.805,270.432z"/>
<path style="fill:#64798A;" d="M198.805,268.704H180.24c-0.795,0-1.435,0.661-1.435,1.477v13.173c0,0.816,0.64,1.477,1.435,1.477
	h18.565c0.795,0,1.435-0.661,1.435-1.477v-13.173C200.235,269.365,199.595,268.704,198.805,268.704z"/>
<path style="fill:#3A556A;" d="M225.397,270.432h-18.571c-0.795,0-1.435,0.661-1.435,1.477v13.173c0,0.816,0.645,1.477,1.435,1.477
	h18.565c0.795,0,1.435-0.661,1.435-1.477v-13.173C226.827,271.093,226.187,270.432,225.397,270.432z"/>
<path style="fill:#64798A;" d="M225.397,268.704h-18.571c-0.795,0-1.435,0.661-1.435,1.477v13.173c0,0.816,0.645,1.477,1.435,1.477
	h18.565c0.795,0,1.435-0.661,1.435-1.477v-13.173C226.827,269.365,226.187,268.704,225.397,268.704z"/>
<path style="fill:#3A556A;" d="M251.989,270.432h-18.565c-0.795,0-1.435,0.661-1.435,1.477v13.173c0,0.816,0.645,1.477,1.435,1.477
	h18.565c0.795,0,1.435-0.661,1.435-1.477v-13.173C253.419,271.093,252.779,270.432,251.989,270.432z"/>
<path style="fill:#64798A;" d="M251.989,268.704h-18.565c-0.795,0-1.435,0.661-1.435,1.477v13.173c0,0.816,0.645,1.477,1.435,1.477
	h18.565c0.795,0,1.435-0.661,1.435-1.477v-13.173C253.419,269.365,252.779,268.704,251.989,268.704z"/>
<path style="fill:#3A556A;" d="M278.581,270.432h-18.565c-0.795,0-1.435,0.661-1.435,1.477v13.173c0,0.816,0.64,1.477,1.435,1.477
	h18.565c0.795,0,1.435-0.661,1.435-1.477v-13.173C280.016,271.093,279.371,270.432,278.581,270.432z"/>
<path style="fill:#64798A;" d="M278.581,268.704h-18.565c-0.795,0-1.435,0.661-1.435,1.477v13.173c0,0.816,0.64,1.477,1.435,1.477
	h18.565c0.795,0,1.435-0.661,1.435-1.477v-13.173C280.016,269.365,279.371,268.704,278.581,268.704z"/>
<path style="fill:#3A556A;" d="M331.765,270.432H313.2c-0.795,0-1.435,0.661-1.435,1.477v13.173c0,0.816,0.64,1.477,1.435,1.477
	h18.565c0.795,0,1.435-0.661,1.435-1.477v-13.173C333.2,271.093,332.56,270.432,331.765,270.432z"/>
<path style="fill:#64798A;" d="M331.765,268.704H313.2c-0.795,0-1.435,0.661-1.435,1.477v13.173c0,0.816,0.64,1.477,1.435,1.477
	h18.565c0.795,0,1.435-0.661,1.435-1.477v-13.173C333.2,269.365,332.56,268.704,331.765,268.704z"/>
<path style="fill:#3A556A;" d="M384.949,270.432h-18.565c-0.795,0-1.435,0.661-1.435,1.477v13.173c0,0.816,0.64,1.477,1.435,1.477
	h18.565c0.795,0,1.435-0.661,1.435-1.477v-13.173C386.384,271.093,385.744,270.432,384.949,270.432z"/>
<path style="fill:#64798A;" d="M384.949,268.704h-18.565c-0.795,0-1.435,0.661-1.435,1.477v13.173c0,0.816,0.64,1.477,1.435,1.477
	h18.565c0.795,0,1.435-0.661,1.435-1.477v-13.173C386.384,269.365,385.744,268.704,384.949,268.704z"/>
<path style="fill:#3A556A;" d="M145.616,294.939h-18.565c-0.795,0-1.435,0.661-1.435,1.477v13.173c0,0.816,0.64,1.477,1.435,1.477
	h18.565c0.795,0,1.435-0.661,1.435-1.477v-13.173C147.051,295.6,146.411,294.939,145.616,294.939z"/>
<path style="fill:#64798A;" d="M145.616,293.205h-18.565c-0.795,0-1.435,0.661-1.435,1.477v13.173c0,0.816,0.64,1.477,1.435,1.477
	h18.565c0.795,0,1.435-0.661,1.435-1.477v-13.173C147.051,293.867,146.411,293.205,145.616,293.205z"/>
<path style="fill:#3A556A;" d="M251.989,294.939h-98.347c-0.795,0-1.435,0.661-1.435,1.477v13.173c0,0.816,0.645,1.477,1.435,1.477
	h98.341c0.795,0,1.435-0.661,1.435-1.477v-13.173C253.419,295.6,252.779,294.939,251.989,294.939z"/>
<path style="fill:#64798A;" d="M251.989,293.205h-98.347c-0.795,0-1.435,0.661-1.435,1.477v13.173c0,0.816,0.645,1.477,1.435,1.477
	h98.341c0.795,0,1.435-0.661,1.435-1.477v-13.173C253.419,293.867,252.779,293.205,251.989,293.205z"/>
<path style="fill:#3A556A;" d="M278.581,294.939h-18.565c-0.795,0-1.435,0.661-1.435,1.477v13.173c0,0.816,0.64,1.477,1.435,1.477
	h18.565c0.795,0,1.435-0.661,1.435-1.477v-13.173C280.016,295.6,279.371,294.939,278.581,294.939z"/>
<path style="fill:#64798A;" d="M278.581,293.205h-18.565c-0.795,0-1.435,0.661-1.435,1.477v13.173c0,0.816,0.64,1.477,1.435,1.477
	h18.565c0.795,0,1.435-0.661,1.435-1.477v-13.173C280.016,293.867,279.371,293.205,278.581,293.205z"/>
<path style="fill:#3A556A;" d="M305.173,294.939h-18.565c-0.795,0-1.435,0.661-1.435,1.477v13.173c0,0.816,0.64,1.477,1.435,1.477
	h18.565c0.795,0,1.435-0.661,1.435-1.477v-13.173C306.608,295.6,305.968,294.939,305.173,294.939z"/>
<path style="fill:#64798A;" d="M305.173,293.205h-18.565c-0.795,0-1.435,0.661-1.435,1.477v13.173c0,0.816,0.64,1.477,1.435,1.477
	h18.565c0.795,0,1.435-0.661,1.435-1.477v-13.173C306.608,293.867,305.968,293.205,305.173,293.205z"/>
<path style="fill:#3A556A;" d="M331.765,294.939H313.2c-0.795,0-1.435,0.661-1.435,1.477v13.173c0,0.816,0.64,1.477,1.435,1.477
	h18.565c0.795,0,1.435-0.661,1.435-1.477v-13.173C333.2,295.6,332.56,294.939,331.765,294.939z"/>
<path style="fill:#64798A;" d="M331.765,293.205H313.2c-0.795,0-1.435,0.661-1.435,1.477v13.173c0,0.816,0.64,1.477,1.435,1.477
	h18.565c0.795,0,1.435-0.661,1.435-1.477v-13.173C333.2,293.867,332.56,293.205,331.765,293.205z"/>
<path style="fill:#3A556A;" d="M358.357,294.939h-18.565c-0.795,0-1.435,0.661-1.435,1.477v13.173c0,0.816,0.64,1.477,1.435,1.477
	h18.565c0.795,0,1.435-0.661,1.435-1.477v-13.173C359.792,295.6,359.152,294.939,358.357,294.939z"/>
<path style="fill:#64798A;" d="M358.357,293.205h-18.565c-0.795,0-1.435,0.661-1.435,1.477v13.173c0,0.816,0.64,1.477,1.435,1.477
	h18.565c0.795,0,1.435-0.661,1.435-1.477v-13.173C359.792,293.867,359.152,293.205,358.357,293.205z"/>
<path style="fill:#3A556A;" d="M384.949,294.939h-18.565c-0.795,0-1.435,0.661-1.435,1.477v13.173c0,0.816,0.64,1.477,1.435,1.477
	h18.565c0.795,0,1.435-0.661,1.435-1.477v-13.173C386.384,295.6,385.744,294.939,384.949,294.939z"/>
<g>
	<path style="fill:#64798A;" d="M384.949,293.205h-18.565c-0.795,0-1.435,0.661-1.435,1.477v13.173c0,0.816,0.64,1.477,1.435,1.477
		h18.565c0.795,0,1.435-0.661,1.435-1.477v-13.173C386.384,293.867,385.744,293.205,384.949,293.205z"/>
	<path style="fill:#64798A;" d="M186.949,192.939h-18.565c-0.795,0-1.435,0.661-1.435,1.477v8.411c0,0.816,0.64,1.477,1.435,1.477
		h18.565c0.795,0,1.435-0.661,1.435-1.477v-8.411C188.384,193.6,187.744,192.939,186.949,192.939z"/>
	<path style="fill:#64798A;" d="M213.616,192.939h-18.565c-0.795,0-1.435,0.661-1.435,1.477v8.411c0,0.816,0.64,1.477,1.435,1.477
		h18.565c0.795,0,1.435-0.661,1.435-1.477v-8.411C215.051,193.6,214.411,192.939,213.616,192.939z"/>
	<path style="fill:#64798A;" d="M240.283,192.939h-18.565c-0.795,0-1.435,0.661-1.435,1.477v8.411c0,0.816,0.64,1.477,1.435,1.477
		h18.565c0.795,0,1.435-0.661,1.435-1.477v-8.411C241.717,193.6,241.077,192.939,240.283,192.939z"/>
	<path style="fill:#64798A;" d="M266.949,192.939h-18.565c-0.795,0-1.435,0.661-1.435,1.477v8.411c0,0.816,0.64,1.477,1.435,1.477
		h18.565c0.795,0,1.435-0.661,1.435-1.477v-8.411C268.384,193.6,267.744,192.939,266.949,192.939z"/>
	<path style="fill:#64798A;" d="M304.949,192.939h-18.565c-0.795,0-1.435,0.661-1.435,1.477v8.411c0,0.816,0.64,1.477,1.435,1.477
		h18.565c0.795,0,1.435-0.661,1.435-1.477v-8.411C306.384,193.6,305.744,192.939,304.949,192.939z"/>
	<path style="fill:#64798A;" d="M331.616,192.939h-18.565c-0.795,0-1.435,0.661-1.435,1.477v8.411c0,0.816,0.64,1.477,1.435,1.477
		h18.565c0.795,0,1.435-0.661,1.435-1.477v-8.411C333.051,193.6,332.411,192.939,331.616,192.939z"/>
	<path style="fill:#64798A;" d="M358.283,192.939h-18.565c-0.795,0-1.435,0.661-1.435,1.477v8.411c0,0.816,0.64,1.477,1.435,1.477
		h18.565c0.795,0,1.435-0.661,1.435-1.477v-8.411C359.717,193.6,359.077,192.939,358.283,192.939z"/>
	<path style="fill:#64798A;" d="M384.949,192.939h-18.565c-0.795,0-1.435,0.661-1.435,1.477v8.411c0,0.816,0.64,1.477,1.435,1.477
		h18.565c0.795,0,1.435-0.661,1.435-1.477v-8.411C386.384,193.6,385.744,192.939,384.949,192.939z"/>
</g>
</svg>